HIERARCHY
ROOT Hips
{
 OFFSET 0.000000 0.000000 0.000000
 CHANNELS 6 Xposition Yposition Zposition Yrotation Xrotation Zrotation
 JOINT Chest
 {
  OFFSET 0.000000 9.857222 0.000240
  CHANNELS 3 Yrotation Xrotation Zrotation
  JOINT Chest2
  {
   OFFSET 0.000000 10.876940 -0.000436
   CHANNELS 3 Yrotation Xrotation Zrotation
   JOINT Chest3
   {
    OFFSET 0.000000 9.827798 0.000000
    CHANNELS 3 Yrotation Xrotation Zrotation
    JOINT Chest4
    {
     OFFSET 0.000000 9.827798 0.000000
     CHANNELS 3 Yrotation Xrotation Zrotation
     JOINT Neck
     {
      OFFSET 0.000000 13.831992 0.000000
      CHANNELS 3 Yrotation Xrotation Zrotation
      JOINT Head
      {
       OFFSET 0.000000 9.147643 -0.001036
       CHANNELS 3 Yrotation Xrotation Zrotation
       End Site
       {
        OFFSET 0.000000 17.515799 -0.000541
       }
      }
     }
     JOINT RightCollar
     {
      OFFSET -3.001579 7.717577 0.000000
      CHANNELS 3 Yrotation Xrotation Zrotation
      JOINT RightShoulder
      {
       OFFSET -14.002642 0.000000 0.000000
       CHANNELS 3 Yrotation Xrotation Zrotation
       JOINT RightElbow
       {
        OFFSET -30.053852 0.000000 0.000000
        CHANNELS 3 Yrotation Xrotation Zrotation
        JOINT RightWrist
        {
         OFFSET -24.564923 0.000000 -0.000000
         CHANNELS 3 Yrotation Xrotation Zrotation
         End Site
         {
          OFFSET -18.334355 0.000000 0.000000
         }
        }
       }
      }
     }
     JOINT LeftCollar
     {
      OFFSET 3.001579 7.717577 0.000000
      CHANNELS 3 Yrotation Xrotation Zrotation
      JOINT LeftShoulder
      {
       OFFSET 14.002642 0.000000 0.000000
       CHANNELS 3 Yrotation Xrotation Zrotation
       JOINT LeftElbow
       {
        OFFSET 30.053852 0.000000 0.000000
        CHANNELS 3 Yrotation Xrotation Zrotation
        JOINT LeftWrist
        {
         OFFSET 24.564923 0.000000 -0.000000
         CHANNELS 3 Yrotation Xrotation Zrotation
         End Site
         {
          OFFSET 18.334355 0.000000 0.000000
         }
        }
       }
      }
     }
    }
   }
  }
 }
 JOINT RightHip
 {
  OFFSET -8.003235 -0.001175 -0.000120
  CHANNELS 3 Yrotation Xrotation Zrotation
  JOINT RightKnee
  {
   OFFSET 0.000000 -41.759727 0.000113
   CHANNELS 3 Yrotation Xrotation Zrotation
   JOINT RightAnkle
   {
    OFFSET 0.000000 -40.728748 0.000159
    CHANNELS 3 Yrotation Xrotation Zrotation
    JOINT RightToe
    {
     OFFSET 0.000000 -6.515296 14.732841
     CHANNELS 3 Yrotation Xrotation Zrotation
     End Site
     {
      OFFSET 0.000000 -1.502839 6.412115
     }
    }
   }
  }
 }
 JOINT LeftHip
 {
  OFFSET 8.003235 -0.001175 -0.000120
  CHANNELS 3 Yrotation Xrotation Zrotation
  JOINT LeftKnee
  {
   OFFSET 0.000000 -41.759727 0.000113
   CHANNELS 3 Yrotation Xrotation Zrotation
   JOINT LeftAnkle
   {
    OFFSET 0.000000 -40.728748 0.000159
    CHANNELS 3 Yrotation Xrotation Zrotation
    JOINT LeftToe
    {
     OFFSET 0.000000 -6.515296 14.732841
     CHANNELS 3 Yrotation Xrotation Zrotation
     End Site
     {
      OFFSET 0.000000 -1.502839 6.412115
     }
    }
   }
  }
 }
}
MOTION
Frames: 10
Frame Time: 0.016667
0.000000 88.822259 0.000000 0.000000 -5.826342 0.000000 0.000000 11.116423 0.000000 0.000000 -5.290081 0.000000 0.000000 0.000000 0.000000 0.000000 0.000000 0.000000 0.000000 12.665069 0.000000 0.000000 0.575450 0.000000 0.000000 0.000000 0.000000 0.000000 0.000000 0.000000 2.337306 0.000000 0.000000 -2.337306 0.000000 0.000000 0.000000 0.000000 0.000000 0.000000 0.000000 0.000000 -2.337306 0.000000 0.000000 2.337306 0.000000 0.000000 0.000000 8.578828 0.000000 0.000000 1.905768 0.000000 0.000000 -4.658254 0.000000 0.000000 0.000000 0.000000 0.000000 8.578828 0.000000 0.000000 1.905768 0.000000 0.000000 -4.658254 0.000000 0.000000 0.000000 0.000000
13.315459 90.407381 23.604806 -30.263656 -10.562941 -0.131415 0.073586 5.732827 -0.881344 0.568489 2.016609 -0.171954 0.568489 2.016609 -0.171954 0.426890 1.512299 -0.130829 -8.154850 21.018744 2.483621 -15.510678 3.555832 6.838671 3.806089 0.021306 9.577368 37.543203 -2.283679 88.772312 31.498447 19.035180 -8.636433 1.121656 9.625036 -8.626292 -21.015260 7.415604 -11.393331 -20.550953 12.927301 -64.203973 -61.888719 -30.867573 29.653671 -7.807805 10.575153 2.759351 2.006957 22.929586 -8.700986 -2.789513 -9.155713 6.198037 -1.326596 -3.243039 2.926056 -0.143128 0.220198 -0.057160 9.419603 15.689169 5.224833 -2.291649 -0.282150 -0.712680 2.788146 -3.607781 -2.580295 0.017184 -0.283420 -0.024103
13.323328 90.410861 23.625940 -30.252967 -10.672087 -0.141471 0.065947 5.812341 -0.871724 0.569940 2.047648 -0.162874 0.569940 2.047648 -0.162874 0.427955 1.535586 -0.124053 -8.155144 21.015463 2.473337 -15.508604 3.548278 6.820612 3.814216 0.011853 9.587405 37.483975 -2.253474 88.680242 31.527062 18.982177 -8.590005 1.106360 9.610997 -8.624887 -21.026839 7.421502 -11.387289 -20.692850 12.885982 -64.206717 -61.994778 -30.903068 29.777386 -7.807713 10.578447 2.747748 2.036653 23.067420 -8.692521 -2.860066 -9.185607 6.216975 -1.344764 -3.195893 2.924533 -0.141523 0.196646 -0.050768 9.363998 15.809143 5.227589 -2.242811 -0.279575 -0.721526 2.810414 -3.601505 -2.555473 0.020898 -0.289869 -0.023884
13.333340 90.414367 23.644522 -30.249060 -10.750440 -0.146223 0.064985 5.870296 -0.860585 0.567604 2.076725 -0.152833 0.567604 2.076725 -0.152833 0.426176 1.557404 -0.116542 -8.150765 21.012234 2.458776 -15.496850 3.539595 6.793543 3.829632 -0.016798 9.591389 37.404026 -2.220370 88.589877 31.585505 18.925804 -8.545656 1.096435 9.585614 -8.618022 -21.027609 7.406494 -11.382658 -20.825171 12.855032 -64.203130 -62.043928 -30.910217 29.822654 -7.806518 10.576242 2.745836 2.066874 23.182893 -8.689574 -2.881728 -9.227311 6.221145 -1.324588 -3.157544 2.932003 -0.153217 0.175704 -0.052258 9.283496 15.883086 5.217819 -2.218730 -0.255437 -0.730385 2.843405 -3.600278 -2.533239 0.023051 -0.297428 -0.023392
13.343009 90.416647 23.665952 -30.220431 -10.822889 -0.146960 0.046114 5.930575 -0.854333 0.565105 2.097744 -0.143610 0.565105 2.097744 -0.143610 0.424275 1.573177 -0.109636 -8.146704 21.013939 2.441386 -15.484417 3.539638 6.760834 3.833209 -0.030984 9.592209 37.323304 -2.200607 88.507983 31.681897 18.841442 -8.494113 1.075786 9.548021 -8.626739 -21.032386 7.392987 -11.384086 -20.930938 12.852268 -64.173412 -62.066741 -30.891821 29.809659 -7.816090 10.576308 2.743571 2.027644 23.298693 -8.713270 -2.840038 -9.272085 6.217703 -1.358740 -3.138034 2.945100 -0.158181 0.164183 -0.053307 9.203171 15.951447 5.191050 -2.190242 -0.224735 -0.719181 2.838982 -3.611881 -2.517979 0.023401 -0.300293 -0.021817
13.353267 90.419081 23.701386 -30.164507 -10.919456 -0.143093 -0.002242 6.021813 -0.857311 0.559971 2.121725 -0.133494 0.559971 2.121725 -0.133494 0.420394 1.591173 -0.102054 -8.135910 21.008722 2.422921 -15.460117 3.525907 6.725205 3.846101 -0.058090 9.588509 37.251076 -2.182910 88.419050 31.808946 18.722100 -8.441707 1.047041 9.503726 -8.632610 -21.033752 7.375439 -11.382238 -21.022765 12.820989 -64.157030 -62.056033 -30.811080 29.763073 -7.828478 10.577502 2.744434 1.979667 23.437207 -8.741828 -2.819338 -9.309749 6.220394 -1.408379 -3.133490 2.964772 -0.173997 0.166966 -0.062188 9.132186 16.047905 5.159796 -2.174928 -0.198421 -0.706933 2.866493 -3.621672 -2.500509 0.024180 -0.304923 -0.019554
13.362392 90.420979 23.723881 -30.163018 -10.974023 -0.155200 0.010090 6.054768 -0.835648 0.556726 2.146688 -0.122956 0.556726 2.146688 -0.122956 0.417928 1.609906 -0.094163 -8.125254 21.005835 2.403647 -15.435621 3.516382 6.687856 3.850485 -0.082177 9.591195 37.193776 -2.159344 88.330655 31.944464 18.587594 -8.401968 1.027667 9.453421 -8.614326 -21.038455 7.382732 -11.383896 -21.134949 12.789014 -64.152787 -62.037443 -30.689667 29.715281 -7.835825 10.574244 2.742419 2.046311 23.531712 -8.730360 -2.854798 -9.344192 6.229162 -1.412870 -3.114342 2.992610 -0.195004 0.160532 -0.077479 9.161324 16.087497 5.183188 -2.177829 -0.158578 -0.720584 2.837550 -3.647086 -2.477570 0.029265 -0.302525 -0.018032
13.372578 90.423853 23.750358 -30.162706 -11.027696 -0.145793 0.015639 6.084798 -0.838189 0.551726 2.170599 -0.110869 0.551726 2.170599 -0.110869 0.414139 1.627851 -0.085102 -8.110312 21.002222 2.382629 -15.402930 3.504736 6.646267 3.865568 -0.114374 9.594539 37.151560 -2.131808 88.253834 32.068175 18.453298 -8.373542 1.002136 9.417863 -8.590022 -21.043278 7.377269 -11.393880 -21.214135 12.778890 -64.153890 -62.022607 -30.551251 29.646423 -7.839986 10.574961 2.743950 2.141198 23.633122 -8.740157 -2.920600 -9.391444 6.233889 -1.314103 -3.091129 3.056772 -0.267668 0.156871 -0.117105 9.203114 16.116678 5.190781 -2.184456 -0.096420 -0.749240 2.810701 -3.670561 -2.442694 0.038447 -0.311842 -0.016519
13.395079 90.428116 23.781110 -30.152942 -11.097434 -0.120886 0.022573 6.115362 -0.860221 0.546095 2.197530 -0.100999 0.546095 2.197530 -0.100999 0.409885 1.648059 -0.077705 -8.097525 20.998442 2.368710 -15.376168 3.494112 6.618101 3.880165 -0.126822 9.611276 37.109236 -2.131585 88.175806 32.149652 18.364368 -8.345069 0.976455 9.372559 -8.575926 -21.052372 7.391067 -11.401275 -21.246132 12.759043 -64.138896 -62.011844 -30.402202 29.540668 -7.838768 10.574114 2.727604 2.205890 23.756489 -8.779385 -2.978685 -9.443509 6.226923 -1.217268 -3.061926 3.158218 -0.368432 0.148839 -0.172469 9.229416 16.147143 5.158000 -2.170347 -0.001272 -0.743782 2.771043 -3.695590 -2.413193 0.045168 -0.330940 -0.019415
13.434476 90.433859 23.819205 -30.123228 -11.171662 -0.056452 0.014700 6.146484 -0.921805 0.536787 2.225630 -0.092563 0.536787 2.225630 -0.092563 0.402877 1.669142 -0.071369 -8.086344 20.989909 2.360368 -15.354322 3.475744 6.601030 3.898112 -0.144471 9.628914 37.092084 -2.122928 88.095423 32.209145 18.271155 -8.327129 0.956958 9.339540 -8.561653 -21.034798 7.405759 -11.401774 -21.262071 12.745023 -64.099588 -61.994126 -30.264321 29.364689 -7.843434 10.573292 2.721576 2.209057 23.889786 -8.883106 -2.976662 -9.516749 6.161610 -1.073313 -3.024849 3.353523 -0.551269 0.143181 -0.263747 9.164747 16.166292 5.047687 -2.072429 0.141857 -0.737463 2.719620 -3.719854 -2.371589 0.060094 -0.367674 -0.019752
